{
  "title": "Transformers Age Of Extinction (2014) 720p Blu-Ray x264 [Dual-Au",
  "uid": 11188752,
  "size": 1513549057,
  "categoryP": "video",
  "categoryS": "hd___movies",
  "magnet": "?xt=urn:btih:a826c207abaab81cd8f322a3c6414a6a80bf1940&amp;dn=Transformers+Age+Of+Extinction+%282014%29+720p+Blu-Ray+x264+%5BDual-Au&amp;tr=udp%3A%2F%2Ftracker.openbittorrent.com%3A80&amp;tr=udp%3A%2F%2Fopen.demonii.com%3A1337&amp;tr=udp%3A%2F%2Ftracker.coppersurfer.tk%3A6969&amp;tr=udp%3A%2F%2Fexodus.desync.com%3A6969",
  "seeders": 50,
  "leechers": 28,
  "uploader": "inovai",
  "files": 3,
  "time": 1412963465,
  "description": "Transformers Age Of Extinction (2014) 720p Blu-Ray x264 [Dual-Audio][English DD 5.1 + Hindi 2.0] - Mafiaking - TeamTNT\n\nCover:\n &lt;a href=&quot;\nhttp://forum.primetimeshow.in/viewtopic.php?f=7&amp;t=559&quot; rel=&quot;nofollow&quot; target=&quot;_NEW&quot;&gt;\nhttp://forum.primetimeshow.in/viewtopic.php?f=7&amp;t=559&lt;/a&gt;\n\nRatings: 6.0/10\n\nGENRE: Action | Adventure | Sci-Fi\n\nScreenshots:\n &lt;a href=&quot;\nhttp://m.primetimeshow.in/share-B0F5_5438000B.html&quot; rel=&quot;nofollow&quot; target=&quot;_NEW&quot;&gt;\nhttp://m.primetimeshow.in/share-B0F5_5438000B.html&lt;/a&gt;\n &lt;a href=&quot;\nhttp://m.primetimeshow.in/share-D52D_5438000B.html&quot; rel=&quot;nofollow&quot; target=&quot;_NEW&quot;&gt;\nhttp://m.primetimeshow.in/share-D52D_5438000B.html&lt;/a&gt;\n &lt;a href=&quot;\nhttp://m.primetimeshow.in/share-E3A1_5438000B.html&quot; rel=&quot;nofollow&quot; target=&quot;_NEW&quot;&gt;\nhttp://m.primetimeshow.in/share-E3A1_5438000B.html&lt;/a&gt;\n &lt;a href=&quot;\nhttp://m.primetimeshow.in/share-ADC6_5438000B.html&quot; rel=&quot;nofollow&quot; target=&quot;_NEW&quot;&gt;\nhttp://m.primetimeshow.in/share-ADC6_5438000B.html&lt;/a&gt;\n &lt;a href=&quot;\nhttp://m.primetimeshow.in/share-ACB8_5438000B.html&quot; rel=&quot;nofollow&quot; target=&quot;_NEW&quot;&gt;\nhttp://m.primetimeshow.in/share-ACB8_5438000B.html&lt;/a&gt;\n\n\nGeneral\nUnique ID : 247526467233141416209535814966274096100 (0xBA37DD101F84D998ABD842B47BBEFBE4)\nComplete name : Transformers Age Of Extinction (2014) 720p Blu-Ray x264 [Dual-Audio][English DD 5.1 + Hindi 2.0] - Mafiaking - TeamTNT.mkv\nFormat : Matroska\nFormat version : Version 4 / Version 2\nFile size : 1.40 GiB\nDuration : 2h 45mn\nOverall bit rate mode : Variable\nOverall bit rate : 1 215 Kbps\nMovie name : Transformers Age Of Extinction (2014) 720p Blu-Ray x264 [Dual-Audio][English DD 5.1 + Hindi 2.0] - Mafiaking - TeamTNT\nEncoded date : UTC 2014-10-10 13:22:47\nWriting application : mkvmerge v7.0.0 ('Where We Going') 64bit built on Jun 9 2014 15:16:27\nWriting library : libebml v1.3.0 + libmatroska v1.4.1\n\n\nVideo\nID : 1\nFormat : AVC\nFormat/Info : Advanced Video Codec\nFormat profile : &lt;a class=&quot;__cf_email__&quot; href=&quot;/cdn-cgi/l/email-protection&quot; data-cfemail=&quot;6a22030d022a265e445b&quot;&gt;[email&amp;#160;protected]&lt;/a&gt;&lt;script cf-hash='f9e31' type=&quot;text/javascript&quot;&gt;\n/* &lt;![CDATA[ */!function(){try{var t=&quot;currentScript&quot;in document?document.currentScript:function(){for(var t=document.getElementsByTagName(&quot;script&quot;),e=t.length;e--;)if(t[e].getAttribute(&quot;cf-hash&quot;))return t[e]}();if(t&amp;&amp;t.previousSibling){var e,r,n,i,c=t.previousSibling,a=c.getAttribute(&quot;data-cfemail&quot;);if(a){for(e=&quot;&quot;,r=parseInt(a.substr(0,2),16),n=2;a.length-n;n+=2)i=parseInt(a.substr(n,2),16)^r,e+=String.fromCharCode(i);e=document.createTextNode(e),c.parentNode.replaceChild(e,c)}}}catch(u){}}();/* ]]&gt; */&lt;/script&gt;\nFormat settings, CABAC : Yes\nFormat settings, ReFrames : 3 frames\nCodec ID : V_MPEG4/ISO/AVC\nDuration : 2h 45mn\nBit rate mode : Variable\nBit rate : 900 Kbps\nMaximum bit rate : 14.0 Mbps\nWidth : 1 280 pixels\nHeight : 536 pixels\nDisplay aspect ratio : 2.40:1\nFrame rate mode : Constant\nFrame rate : 23.976 fps\nColor space : YUV\nChroma subsampling : 4:2:0\nBit depth : 8 bits\nScan type : Progressive\nBits/(Pixel*Frame) : 0.055\nStream size : 1.00 GiB (72%)\nTitle : Mafiaking\nLanguage : English\nDefault : Yes\nForced : No\n\nAudio #1\nID : 2\nFormat : AC-3\nFormat/Info : Audio Coding 3\nMode extension : CM (complete main)\nFormat settings, Endianness : Big\nCodec ID : A_AC3\nDuration : 2h 45mn\nBit rate mode : Constant\nBit rate : 128 Kbps\nChannel(s) : 2 channels\nChannel positions : Front: L R\nSampling rate : 48.0 KHz\nBit depth : 16 bits\nCompression mode : Lossy\nStream size : 151 MiB (11%)\nTitle : Mafiaking\nLanguage : Hindi\nDefault : Yes\nForced : No\n\nAudio #2\nID : 3\nFormat : AC-3\nFormat/Info : Audio Coding 3\nMode extension : CM (complete main)\nFormat settings, Endianness : Big\nCodec ID : A_AC3\nDuration : 2h 45mn\nBit rate mode : Constant\nBit rate : 192 Kbps\nChannel(s) : 6 channels\nChannel positions : Front: L C R, Side: L R, LFE\nSampling rate : 48.0 KHz\nBit depth : 16 bits\nCompression mode : Lossy\nStream size : 227 MiB (16%)\nTitle : Mafiaking\nLanguage : English\nDefault : No\nForced : No\n\n\nSAMPLE WITH IN TORRENT\n\nSpecial Thanks Usman Ansari For Hindi Audio.!\n\n\nThanks to Mafiaking - TeamTNT!!\n\nSeed n Enjoy!!",
  "parsed": {
    "xt": "urn:btih:a826c207abaab81cd8f322a3c6414a6a80bf1940",
    "dn": "Transformers Age Of Extinction (2014) 720p Blu-Ray x264 [Dual-Au",
    "tr": [
      "udp://exodus.desync.com:6969",
      "udp://open.demonii.com:1337",
      "udp://tracker.coppersurfer.tk:6969",
      "udp://tracker.openbittorrent.com:80"
    ],
    "infoHash": "a826c207abaab81cd8f322a3c6414a6a80bf1940",
    "infoHashBuffer": {
      "type": "Buffer",
      "data": [
        168,
        38,
        194,
        7,
        171,
        170,
        184,
        28,
        216,
        243,
        34,
        163,
        198,
        65,
        74,
        106,
        128,
        191,
        25,
        64
      ]
    },
    "name": "Transformers Age Of Extinction (2014) 720p Blu-Ray x264 [Dual-Au",
    "announce": [
      "udp://exodus.desync.com:6969",
      "udp://open.demonii.com:1337",
      "udp://tracker.coppersurfer.tk:6969",
      "udp://tracker.openbittorrent.com:80"
    ],
    "urlList": []
  },
  "previous": 78,
  "peers": 20,
  "last_updated": "2016-12-25T10:21:48.660Z"
}